<?xml version="1.0" standalone="no"?>
<!DOCTYPE svg PUBLIC "-//W3C//DTD SVG 20010904//EN"
 "http://www.w3.org/TR/2001/REC-SVG-20010904/DTD/svg10.dtd">
<svg version="1.0" xmlns="http://www.w3.org/2000/svg"
 width="145.000000pt" height="154.000000pt" viewBox="0 0 145.000000 154.000000"
 preserveAspectRatio="xMidYMid meet">

<g transform="translate(0.000000,154.000000) scale(0.100000,-0.100000)"
fill="#000000" stroke="none">
<path d="M97 1373 c-3 -5 -8 -277 -12 -605 l-7 -598 41 0 c40 0 41 -1 41 -35
l0 -35 599 0 598 0 8 594 c4 327 4 600 0 606 -4 6 -21 10 -38 8 -30 -3 -32 -1
-35 35 l-3 37 -594 0 c-327 0 -596 -3 -598 -7z m1178 -38 l0 -30 -557 -3 -558
-2 0 -555 0 -555 -30 0 -30 0 0 585 0 585 478 3 c262 1 527 2 587 2 l110 0 0
-30z m0 -57 c2 -7 1 -254 -3 -548 l-7 -535 -549 -3 -549 -2 6 227 c4 124 7
369 7 544 l0 318 63 4 c34 2 279 4 545 5 378 2 484 -1 487 -10z m75 -571 l0
-584 -197 -6 c-108 -4 -373 -7 -590 -7 l-393 0 0 29 c0 27 3 29 53 35 28 3
280 6 560 6 l507 0 0 555 0 555 30 0 30 0 0 -583z"/>
<path d="M550 750 c0 -278 2 -320 15 -320 13 0 15 42 15 320 0 278 -2 320 -15
320 -13 0 -15 -42 -15 -320z"/>
<path d="M762 917 l-152 -152 169 -169 c108 -108 174 -167 185 -165 11 3 -34
54 -149 169 l-165 165 152 152 c109 109 147 153 133 153 -13 0 -78 -57 -173
-153z"/>
</g>
</svg>
